<?xml version="1.0" encoding="UTF-8" standalone="no"?>
<!DOCTYPE svg PUBLIC "-//W3C//DTD SVG 1.1//EN" "http://www.w3.org/Graphics/SVG/1.1/DTD/svg11.dtd">
<svg xmlns="http://www.w3.org/2000/svg" xmlns:xlink="http://www.w3.org/1999/xlink" version="1.1" width="104.829pt" height="32.112pt" viewBox="0 0 104.829 32.112">
<g enable-background="new">
<g>
<path transform="matrix(1,0,0,-1,0,32.112)" d="M .004 32.108 L 9.941999 32.108 L 9.941999 -.0009994507 L .004 -.0009994507 Z " fill="#a2a2a2"/>
<path transform="matrix(1,0,0,-1,0,32.112)" d="M 61.629 -.001 L 48.332 -.001 L 41.176 8.499 L 25.91 8.499 L 25.91 -.001 L 15.973 -.001 L 15.973 16.421 L 43.91 16.421 C 45.449 16.421 46.746 16.737 47.801 17.374 C 48.863 18.018 49.395 18.897 49.395 20.014 C 49.395 21.264 48.91 22.202 47.941 22.827 C 46.98 23.452 45.637 23.764 43.91 23.764 L 15.973 23.764 L 22.457 32.108 L 43.098 32.108 C 44.918 32.108 46.805 31.94 48.754 31.608 C 50.711 31.272 52.488 30.674 54.082 29.811 C 55.684 28.944 57.008 27.772 58.051 26.296 C 59.09 24.827 59.613 22.94 59.613 20.639 C 59.613 19.389 59.418 18.202 59.035 17.077 C 58.648 15.96 58.098 14.956 57.379 14.061 C 56.66 13.163 55.777 12.405 54.738 11.78 C 53.695 11.155 52.52 10.717 51.207 10.467 C 51.746 10.049 52.352 9.518 53.02 8.874 C 53.695 8.237 54.598 7.358 55.723 6.233 Z M 61.629 -.001 " fill="#a2a2a2"/>
<path transform="matrix(1,0,0,-1,0,32.112)" d="M 104.832 8.249 L 98.441 -.001 L 82.316 -.001 C 79.535 -.001 76.957 .413 74.582 1.249 C 72.215 2.081 70.176 3.221 68.457 4.671 C 66.746 6.128 65.402 7.858 64.426 9.858 C 63.457 11.858 62.973 14.03 62.973 16.374 C 62.973 18.706 63.457 20.842 64.426 22.78 C 65.402 24.717 66.746 26.378 68.457 27.764 C 70.176 29.159 72.215 30.233 74.582 30.983 C 76.957 31.733 79.535 32.108 82.316 32.108 L 104.832 32.108 L 98.441 23.764 L 82.316 23.764 C 80.973 23.764 79.723 23.569 78.566 23.186 C 77.418 22.799 76.43 22.264 75.598 21.577 C 74.762 20.889 74.105 20.061 73.629 19.092 C 73.148 18.132 72.91 17.081 72.91 15.936 C 72.91 14.78 73.137 13.725 73.598 12.78 C 74.066 11.842 74.723 11.034 75.566 10.358 C 76.418 9.69 77.418 9.171 78.566 8.796 C 79.723 8.428 80.973 8.249 82.316 8.249 Z M 104.832 8.249 " fill="#a2a2a2"/>
</g>
</g>
</svg>
